<?xml version="1.0" encoding="UTF-8" standalone="no"?><!DOCTYPE svg PUBLIC "-//W3C//DTD SVG 1.1//EN" "http://www.w3.org/Graphics/SVG/1.1/DTD/svg11.dtd"><svg width="100%" height="100%" viewBox="0 0 2250 485" version="1.1" xmlns="http://www.w3.org/2000/svg" xmlns:xlink="http://www.w3.org/1999/xlink" xml:space="preserve" style="fill-rule:evenodd;clip-rule:evenodd;stroke-linejoin:round;stroke-miterlimit:1.41421;"><g><g><path d="M458.051,190.983c-4.401,-5.602 -10.153,-10.053 -17.255,-13.354c-7.103,-3.302 -13.955,-4.952 -20.557,-4.952c-3.401,0 -6.853,0.3 -10.354,0.9c-3.501,0.6 -6.652,1.751 -9.453,3.451c-2.801,1.701 -5.152,3.902 -7.052,6.603c-1.901,2.7 -2.851,6.152 -2.851,10.353c0,3.601 0.75,6.602 2.251,9.003c1.5,2.401 3.701,4.501 6.602,6.302c2.901,1.801 6.352,3.451 10.353,4.952c4.002,1.5 8.503,3.051 13.505,4.651c7.202,2.401 14.705,5.052 22.507,7.953c7.803,2.901 14.905,6.752 21.307,11.554c6.403,4.801 11.704,10.753 15.906,17.856c4.201,7.102 6.302,15.955 6.302,26.559c0,12.204 -2.251,22.757 -6.752,31.66c-4.502,8.903 -10.554,16.256 -18.156,22.058c-7.603,5.802 -16.306,10.103 -26.109,12.904c-9.803,2.801 -19.907,4.201 -30.31,4.201c-15.205,0 -29.91,-2.651 -44.115,-7.952c-14.205,-5.302 -26.009,-12.855 -35.412,-22.658l33.611,-34.211c5.202,6.402 12.054,11.754 20.557,16.055c8.503,4.301 16.956,6.452 25.359,6.452c3.801,0 7.502,-0.4 11.103,-1.2c3.602,-0.801 6.753,-2.101 9.454,-3.902c2.7,-1.8 4.851,-4.201 6.452,-7.202c1.6,-3.001 2.4,-6.602 2.4,-10.804c0,-4.001 -1,-7.402 -3.001,-10.203c-2,-2.801 -4.851,-5.352 -8.552,-7.653c-3.702,-2.3 -8.303,-4.401 -13.805,-6.302c-5.502,-1.9 -11.754,-3.951 -18.756,-6.152c-6.803,-2.2 -13.455,-4.801 -19.957,-7.802c-6.502,-3.001 -12.304,-6.853 -17.406,-11.554c-5.101,-4.702 -9.203,-10.404 -12.304,-17.106c-3.101,-6.702 -4.651,-14.855 -4.651,-24.458c0,-11.804 2.4,-21.907 7.202,-30.31c4.802,-8.403 11.104,-15.305 18.906,-20.707c7.803,-5.402 16.606,-9.353 26.409,-11.854c9.803,-2.501 19.707,-3.751 29.71,-3.751c12.004,0 24.258,2.2 36.762,6.602c12.505,4.401 23.458,10.904 32.861,19.506l-32.711,34.512Z" style="fill-rule:nonzero;"/><path d="M610.202,179.579l0,168.656l-51.317,0l0,-168.656l-60.02,0l0,-43.814l171.357,0l0,43.814l-60.02,0Z" style="fill-rule:nonzero;"/><path d="M906.101,241.1c0,16.805 -2.901,32.16 -8.703,46.065c-5.802,13.905 -13.854,25.809 -24.158,35.712c-10.303,9.903 -22.557,17.556 -36.762,22.958c-14.205,5.401 -29.61,8.102 -46.216,8.102c-16.605,0 -31.96,-2.701 -46.065,-8.102c-14.105,-5.402 -26.309,-13.055 -36.612,-22.958c-10.304,-9.903 -18.356,-21.807 -24.158,-35.712c-5.802,-13.905 -8.703,-29.26 -8.703,-46.065c0,-17.006 2.901,-32.361 8.703,-46.066c5.802,-13.704 13.854,-25.358 24.158,-34.961c10.303,-9.604 22.507,-17.006 36.612,-22.208c14.105,-5.202 29.46,-7.802 46.065,-7.802c16.606,0 32.011,2.6 46.216,7.802c14.205,5.202 26.459,12.604 36.762,22.208c10.304,9.603 18.356,21.257 24.158,34.961c5.802,13.705 8.703,29.06 8.703,46.066Zm-54.918,0c0,-9.203 -1.501,-17.806 -4.502,-25.809c-3.001,-8.003 -7.152,-14.855 -12.454,-20.557c-5.302,-5.702 -11.704,-10.203 -19.206,-13.504c-7.503,-3.301 -15.756,-4.952 -24.759,-4.952c-9.003,0 -17.205,1.651 -24.608,4.952c-7.402,3.301 -13.804,7.802 -19.206,13.504c-5.402,5.702 -9.553,12.554 -12.454,20.557c-2.901,8.003 -4.352,16.606 -4.352,25.809c0,9.603 1.501,18.456 4.502,26.559c3.001,8.102 7.152,15.055 12.454,20.857c5.302,5.801 11.654,10.353 19.056,13.654c7.403,3.301 15.605,4.952 24.608,4.952c9.003,0 17.206,-1.651 24.609,-4.952c7.402,-3.301 13.804,-7.853 19.206,-13.654c5.402,-5.802 9.603,-12.755 12.604,-20.857c3.001,-8.103 4.502,-16.956 4.502,-26.559Z" style="fill-rule:nonzero;"/><path d="M1075.06,348.235l-85.528,-138.946l-0.9,0l1.2,138.946l-49.817,0l0,-212.47l58.52,0l85.228,138.646l0.901,0l-1.201,-138.646l49.817,0l0,212.47l-58.22,0Z" style="fill-rule:nonzero;"/><path d="M1177.09,348.235l0,-212.47l142.847,0l0,43.514l-93.331,0l0,39.913l88.23,0l0,41.114l-88.23,0l0,44.115l98.733,0l0,43.814l-148.249,0Z" style="fill-rule:nonzero;"/><path d="M1493.4,348.235l0,-88.829l-82.827,0l0,88.829l-51.318,0l0,-212.47l51.318,0l0,80.426l82.827,0l0,-80.426l51.317,0l0,212.47l-51.317,0Z" style="fill-rule:nonzero;"/><path d="M1588.53,348.235l0,-212.47l142.848,0l0,43.514l-93.332,0l0,39.913l88.23,0l0,41.114l-88.23,0l0,44.115l98.733,0l0,43.814l-148.249,0Z" style="fill-rule:nonzero;"/><path d="M1914.74,348.235l-16.506,-41.713l-82.227,0l-15.605,41.713l-55.819,0l89.13,-212.47l49.816,0l88.23,212.47l-57.019,0Zm-57.019,-155.752l-27.009,72.925l53.418,0l-26.409,-72.925Z" style="fill-rule:nonzero;"/><path d="M2187.83,241.4c0,18.606 -3.451,34.661 -10.353,48.166c-6.903,13.504 -16.006,24.608 -27.309,33.311c-11.304,8.703 -24.059,15.105 -38.263,19.206c-14.205,4.102 -28.61,6.152 -43.215,6.152l-79.226,0l0,-212.47l76.826,0c15.005,0 29.809,1.75 44.414,5.251c14.605,3.501 27.61,9.303 39.013,17.406c11.404,8.103 20.607,18.956 27.61,32.561c7.002,13.605 10.503,30.41 10.503,50.417Zm-53.418,0c0,-12.004 -1.95,-21.958 -5.852,-29.86c-3.901,-7.903 -9.103,-14.205 -15.605,-18.906c-6.502,-4.702 -13.905,-8.053 -22.207,-10.054c-8.303,-2.001 -16.856,-3.001 -25.659,-3.001l-25.508,0l0,124.242l24.308,0c9.203,0 18.056,-1.051 26.559,-3.151c8.502,-2.101 16.005,-5.552 22.507,-10.354c6.502,-4.801 11.704,-11.204 15.605,-19.206c3.902,-8.003 5.852,-17.906 5.852,-29.71Z" style="fill-rule:nonzero;"/></g><path d="M262.11,301.053c-0.28,12.756 -0.632,33.114 -0.369,45.618c0.466,22.167 4.539,62.344 2.909,66.452c-35.993,9.457 -66.914,8.538 -97.882,3.571c-29.337,-4.706 -49.882,-7.063 -87.926,-33.373c-2.2,-19.572 3.262,-52.954 2.106,-65.197c-0.384,-4.063 -9.554,-3.595 -13.306,-9.678c-3.505,-4.329 -3.118,-10.303 -3.32,-15.267c-0.33,-8.084 5.048,-7.585 5.606,-31.815c0.883,-24.499 -1.802,-94.064 -0.306,-115.183c3.16,-5.702 6.222,-1.689 8.782,-8.889c0.775,-10.174 -3.628,-16.336 -1.356,-27.44c2.327,-3.755 8.457,-3.621 11.008,-6.95c2.55,-3.329 0.532,-8.417 3.48,-14.475c2.707,-5.563 9.745,-14.544 17.307,-18.051c8.708,-4.038 23.305,-8.295 34.941,-6.177c18.235,3.32 56.853,14.312 70.994,26.574c8.483,7.355 15.527,21.287 20.084,33.461c-7.362,-10.324 -23.153,-17.757 -35.585,-23.41c-13.609,-6.189 -28.125,-8.755 -42.042,-8.034c-13.635,0.706 -33.563,5.353 -44.305,13.781c-10.757,8.439 -22.828,35.853 -22.828,35.853c16.246,0.207 33.253,0.414 49.489,0.417c0.218,0 18.187,53.934 21.521,62.727c0.069,0.184 0.132,0.348 0.188,0.491c0.024,0.06 -5.106,5.549 -9.608,12.882c-1.776,6.481 2.236,18.988 2.236,18.988c0,0 -3.971,-13.255 -1.97,-18.397c1.463,-3.76 10.228,-13.655 10.233,-13.661l-21.435,-62.849c0,0 2.894,-13.417 8.112,-16.799c5.866,-3.802 15.049,-5.197 19.979,-6.014c8.218,-0.585 11.696,1.673 16.018,3.887c4.207,4.544 9.319,15.273 11.191,20.509c1.908,4.952 2.387,10.073 4.445,13.391c1.971,3.179 4.113,3.951 7.622,4.016c4.305,-1.35 27.581,10.456 27.581,10.456c0,0 0.501,0.188 0.919,0.585c17.222,12.576 24.6,82.627 24.454,81.742c-0.378,-2.299 -4.533,-5.374 -6.415,-7.585c-1.64,-1.928 -2.1,-2.74 -1.481,-6.673c1.361,-8.186 -3.863,-9.922 -6.54,-15.239c-3.653,-7.256 -14.143,-14.036 -22.231,-14.801c-11.221,-1.061 -32.406,-0.729 -43.951,4.23c-8.532,3.665 -15.069,11.543 -18.965,18.591c-3.707,6.708 -2.71,19.375 -2.71,19.375c0,0 41.309,8.233 58.341,13.89c8.902,2.956 23.375,10.58 33.554,16.221c-6.241,-2.375 -15.508,-5.751 -24.446,-7.192c-10.274,-1.656 -20.863,-1.194 -31.22,-0.174c-11.716,1.153 -37.908,5.256 -37.908,5.256c0,0 28.058,-1.636 40.068,-1.584c10.199,0.044 21.152,0.501 30.824,3.734c4.077,1.363 10.756,2.869 16.847,6.22c7.877,4.334 15.052,10.629 17.266,11.989Z"/></g></svg>